<svg id="SvgjsSvg1012" width="288" height="288" xmlns="http://www.w3.org/2000/svg" version="1.1" xmlns:xlink="http://www.w3.org/1999/xlink" xmlns:svgjs="http://svgjs.com/svgjs"><defs id="SvgjsDefs1013"></defs><g id="SvgjsG1014"><svg xmlns="http://www.w3.org/2000/svg" viewBox="0 0 235 235" width="288" height="288"><polygon points="202 107.5 202 120.5 192 120.5 192 75.5 176 75.5 176 67.5 134 67.5 134 57.5 148 57.5 148 24.5 85 24.5 85 57.5 98 57.5 98 67.5 56 67.5 56 75.5 40 75.5 40 128.5 20 128.5 20 107.5 0 107.5 0 169.5 20 169.5 20 148.5 40 148.5 40 202.5 91.435 202.5 94.696 210.5 192 210.5 192 202.236 192 160.236 192 156.5 202 156.5 202 170.5 235 170.5 235 107.5" fill="#ffffff" class="color000 svgShape"></polygon></svg></g></svg>