<svg id="SvgjsSvg1017" width="288" height="288" xmlns="http://www.w3.org/2000/svg" version="1.1" xmlns:xlink="http://www.w3.org/1999/xlink" xmlns:svgjs="http://svgjs.com/svgjs"><defs id="SvgjsDefs1018"></defs><g id="SvgjsG1019"><svg xmlns="http://www.w3.org/2000/svg" enable-background="new 0 0 214.182 214.182" viewBox="0 0 214.182 214.182" width="288" height="288"><path d="M178.029,170.29c-6.183-2.258-14.972-5.852-16.573-20.476c0,0,1.572-23.985-29.66-43.252  c17.069,1.49,16.733-23.593,16.733-23.593c-1.502-21.565-21.587-32.819-21.587-32.819c0.237-13.678-4.479-16.987-9.457-18.43  c-9.356-2.767-15.705,8.311-15.705,8.311l-3.972,1.206l4.977,2.368c-0.786,1.105,0.987,6.661,0.987,6.661l-1.04,2.131l2.689,2.881  c0.851,5.146,7.784,4.129,7.784,4.129c-3.162,2.743-2.624,9.327-2.624,9.327c-2.56,7.081-8.08,7.317-13.329,5.509  c-1.141-3.925-2.016-8.349-2.429-13.468c-1.359-16.585-5.19-41.928-40.619-52.641L49.328,0l-3.263,9.437  c0,0-5.852-1.303-9.416,1.948l5.172,1.622c0,0-7.146,7.48-13.654,23.726c0,0-9.729,11.042,0.674,17.875c0,0,4.54,4.217,9.741-3.57  c0,0,10.048,1.619,15.261-7.483c0,0-5.213,15.593-1.951,24.707c0,0-12.359,7.155-11.703,22.745c0,0-4.22-0.319-9.422-5.852  c0,0-4.876-5.521-9.434,0.334c0,0-7.477,6.821-4.22,13.982l8.778,17.221c0,0,3.245,3.264,9.09,6.833c0,0,7.483,11.704,9.44,1.95  c0,0,2.252,1.62,2.595-2.618l-0.633-4.539c0,0,6.821,2.27,13.648,0c0,0,13.654,24.37,40.956,36.724c0,0-7.164,16.248-4.551,29.896  c0,0-6.827,9.422-20.481,13.322c0,0-9.097,1.632-13.654,9.104c0,0-9.741,6.82,8.771,6.82c0,0,9.422-1.619,13.979-10.722  c0,0,32.834-7.802,32.834-17.868c0,0-3.263-11.379,6.177-9.428c0,0,21.107-0.981,33.147-14.635c0,0-4.291,22.342,17.543,21.455  c6.508-0.271,18.861-3.25,23.081,12.023C197.835,194.985,199.928,178.287,178.029,170.29z M28.185,96.502  c5.929,11.053,7.637,16.417,7.637,16.417C29.479,108.052,28.185,96.502,28.185,96.502z" fill="#ffffff" class="color000 svgShape"></path></svg></g></svg>