<svg id="SvgjsSvg1029" width="288" height="288" xmlns="http://www.w3.org/2000/svg" version="1.1" xmlns:xlink="http://www.w3.org/1999/xlink" xmlns:svgjs="http://svgjs.com/svgjs"><defs id="SvgjsDefs1030"></defs><g id="SvgjsG1031"><svg xmlns="http://www.w3.org/2000/svg" enable-background="new 0 0 612 612" viewBox="0 0 612 612" width="288" height="288"><path d="M175.205 239.62c.127-1.965-.533-3.902-1.833-5.381l-58.84-66.941c-1.3-1.479-3.135-2.381-5.102-2.508-1.975-.126-3.902.533-5.381 1.833-27.037 23.766-49.479 51.794-66.706 83.305-.944 1.729-1.165 3.762-.611 5.651.554 1.89 1.836 3.483 3.565 4.427l78.205 42.748c1.131.619 2.352.912 3.557.912 2.627 0 5.174-1.398 6.523-3.866 11.386-20.828 26.229-39.359 44.114-55.08C174.178 243.422 175.08 241.587 175.205 239.62zM201.462 214.829c1.334 2.515 3.907 3.948 6.568 3.948 1.174 0 2.365-.279 3.473-.867 20.962-11.117 43.512-18.371 67.025-21.561 4.064-.551 6.913-4.293 6.362-8.358l-11.979-88.316c-.551-4.064-4.304-6.909-8.358-6.362-35.708 4.843-69.949 15.857-101.772 32.736-3.623 1.922-5.002 6.416-3.082 10.041L201.462 214.829zM105.785 334.345l-86.017-23.338c-1.901-.514-3.929-.255-5.638.725s-2.958 2.598-3.475 4.499C3.586 342.295 0 369.309 0 396.523c0 4.657.111 9.329.342 14.284.185 3.981 3.468 7.083 7.414 7.083.116 0 .234-.002.35-.008l89.031-4.113c1.967-.09 3.82-.96 5.145-2.415 1.327-1.455 2.022-3.38 1.93-5.347-.155-3.341-.23-6.444-.23-9.484 0-18.02 2.365-35.873 7.029-53.066C112.082 339.499 109.743 335.42 105.785 334.345zM438.731 120.745c-32.411-15.625-67.04-25.308-102.925-28.786-1.972-.198-3.918.408-5.439 1.659-1.521 1.252-2.481 3.056-2.671 5.018l-8.593 88.712c-.396 4.082 2.594 7.713 6.677 8.108 23.652 2.291 46.463 8.669 67.8 18.954 1.015.49 2.118.738 3.225.738.826 0 1.654-.139 2.45-.416 1.859-.649 3.385-2.012 4.24-3.786l38.7-80.287C443.978 126.965 442.427 122.525 438.731 120.745zM569.642 245.337c.48-1.911.184-3.932-.828-5.624-18.432-30.835-41.933-57.983-69.848-80.686-1.529-1.242-3.48-1.824-5.447-1.627-1.959.203-3.758 1.174-5 2.702l-56.237 69.144c-1.242 1.529-1.828 3.488-1.625 5.447.201 1.959 1.173 3.758 2.702 5.002 18.47 15.019 34.015 32.975 46.205 53.369 1.392 2.326 3.855 3.618 6.383 3.618 1.297 0 2.61-.34 3.803-1.054l76.501-45.728C567.94 248.889 569.16 247.248 569.642 245.337zM598.044 304.939c-1.228-3.915-5.397-6.096-9.308-4.867l-85.048 26.648c-3.915 1.226-6.093 5.393-4.867 9.306 6.104 19.486 9.199 39.839 9.199 60.494 0 3.041-.076 6.144-.23 9.484-.092 1.967.602 3.892 1.93 5.347 1.327 1.456 3.178 2.325 5.145 2.415l89.031 4.113c.118.005.234.008.35.008 3.944 0 7.228-3.103 7.414-7.083.229-4.955.342-9.627.342-14.284C612 365.306 607.306 334.494 598.044 304.939zM305.737 380.755c-1.281 0-2.555.042-3.824.11l-120.65-71.185c-2.953-1.745-6.702-1.308-9.176 1.065-2.476 2.371-3.07 6.099-1.456 9.121l65.815 123.355c-.242 2.376-.371 4.775-.371 7.195 0 18.608 7.246 36.101 20.403 49.258 13.158 13.158 30.652 20.404 49.26 20.404 18.608 0 36.101-7.248 49.258-20.404 13.158-13.157 20.403-30.65 20.403-49.258 0-18.608-7.246-36.101-20.403-49.258C341.839 388.001 324.344 380.755 305.737 380.755z" fill="#ffffff" class="color000 svgShape"></path></svg></g></svg>