<svg id="SvgjsSvg1001" width="288" height="288" xmlns="http://www.w3.org/2000/svg" version="1.1" xmlns:xlink="http://www.w3.org/1999/xlink" xmlns:svgjs="http://svgjs.com/svgjs"><defs id="SvgjsDefs1002"></defs><g id="SvgjsG1008"><svg xmlns="http://www.w3.org/2000/svg" enable-background="new 0 0 100 100" viewBox="0 0 100 125" width="288" height="288"><path d="M83,55.9c-0.7-0.5-1-1.4-0.9-2.3c0.1-1.2,0.2-2.4,0.2-3.6c0-1.2-0.1-2.4-0.2-3.6c-0.1-0.9,0.2-1.7,0.9-2.3l9-7.2  c1-0.8,1.2-2.1,0.6-3.2l-7.3-12.7c-0.6-1.1-1.9-1.5-3-1.1l-10.7,4.2c-0.8,0.3-1.7,0.2-2.4-0.3c-1.9-1.4-4.1-2.6-6.3-3.6  c-0.8-0.3-1.4-1-1.5-1.9L59.7,7.1C59.6,5.9,58.5,5,57.3,5H42.7c-1.2,0-2.3,0.9-2.4,2.1l-1.7,11.4c-0.1,0.8-0.7,1.6-1.5,1.9  c-2.2,1-4.3,2.2-6.3,3.6c-0.7,0.5-1.6,0.7-2.4,0.3l-10.7-4.2c-1.1-0.4-2.4,0-3,1.1L7.4,33.8C6.8,34.9,7,36.2,8,37l9,7.2  c0.7,0.5,1,1.4,0.9,2.3c-0.1,1.2-0.2,2.4-0.2,3.6c0,1.2,0.1,2.4,0.2,3.6c0.1,0.9-0.2,1.7-0.9,2.3L8,63c-1,0.8-1.2,2.1-0.6,3.2  l7.3,12.7c0.6,1.1,1.9,1.5,3,1.1l10.7-4.2c0.8-0.3,1.7-0.2,2.4,0.3c1.9,1.4,4.1,2.6,6.3,3.6c0.8,0.3,1.4,1,1.5,1.9l1.7,11.4  c0.2,1.2,1.2,2.1,2.4,2.1h14.6c1.2,0,2.3-0.9,2.4-2.1l1.7-11.4c0.1-0.8,0.7-1.6,1.5-1.9c2.2-1,4.3-2.2,6.3-3.6  c0.7-0.5,1.6-0.7,2.4-0.3l10.7,4.2c1.1,0.4,2.4,0,3-1.1l7.3-12.7c0.6-1.1,0.4-2.4-0.6-3.2L83,55.9z M50,62.4  c-6.9,0-12.4-5.6-12.4-12.4S43.1,37.6,50,37.6S62.4,43.1,62.4,50S56.9,62.4,50,62.4z" fill="#ffffff" class="color000 svgShape"></path></svg></g></svg>