<svg id="SvgjsSvg1120" width="288" height="288" xmlns="http://www.w3.org/2000/svg" version="1.1" xmlns:xlink="http://www.w3.org/1999/xlink" xmlns:svgjs="http://svgjs.com/svgjs"><defs id="SvgjsDefs1121"></defs><g id="SvgjsG1122"><svg xmlns="http://www.w3.org/2000/svg" enable-background="new 0 0 430.312 430.312" viewBox="0 0 430.312 430.312" width="288" height="288"><polygon points="349.031 258.188 358.594 258.188 358.604 258.188 358.594 210.375 349.031 210.375 81.281 210.375 71.719 210.375 71.719 258.188 81.281 258.188" fill="#ffffff" class="color000 svgShape"></polygon><path d="M358.594 47.812h-9.562H81.281h-9.562c-5.278 0-9.562 7.411-9.562 14.344S66.44 76.5 71.719 76.5h9.562v114.75h267.75V76.5h9.562c5.278 0 9.562-7.411 9.562-14.344S363.872 47.812 358.594 47.812zM62.156 415.969c0 7.038 4.284 14.344 9.562 14.344h9.562 267.75 9.562c5.278 0 9.562-7.306 9.562-14.344s-4.284-14.344-9.562-14.344h-9.562V277.312H81.281v124.312h-9.562C66.44 401.625 62.156 408.931 62.156 415.969z" fill="#ffffff" class="color000 svgShape"></path><rect width="47.812" height="28.688" x="109.969" fill="#ffffff" class="color000 svgShape"></rect></svg></g></svg>