<svg id="SvgjsSvg1127" width="288" height="288" xmlns="http://www.w3.org/2000/svg" version="1.1" xmlns:xlink="http://www.w3.org/1999/xlink" xmlns:svgjs="http://svgjs.com/svgjs"><defs id="SvgjsDefs1128"></defs><g id="SvgjsG1129"><svg xmlns="http://www.w3.org/2000/svg" enable-background="new 0 0 512 512" viewBox="0 0 512 512" width="288" height="288"><path d="M437.019,74.981C388.667,26.628,324.38,0,256,0S123.333,26.628,74.981,74.981C26.628,123.332,0,187.62,0,256    s26.628,132.667,74.981,181.019C123.333,485.372,187.62,512,256,512s132.667-26.628,181.019-74.981    C485.372,388.667,512,324.38,512,256S485.372,123.332,437.019,74.981z M256,490.213C126.854,490.213,21.787,385.145,21.787,256    S126.854,21.787,256,21.787S490.213,126.855,490.213,256S385.146,490.213,256,490.213z" fill="#ffffff" class="color000 svgShape"></path><path d="M440.477 150.785c-.151-.338-.321-.671-.511-.998-3.008-5.208-9.667-6.995-14.881-3.987l-31.977 18.461c-5.21 3.008-6.996 9.67-3.987 14.881 2.019 3.495 5.679 5.448 9.445 5.448 1.848 0 3.72-.471 5.436-1.461l22.235-12.837c10.762 21.317 17.41 44.535 19.59 68.353-42.8-10.233-158.855-37.466-180.154-37.107-14.546.254-28.123 6.157-38.23 16.623-10.107 10.465-15.533 24.24-15.278 38.788.518 29.708 24.849 53.519 54.445 53.517.32 0 .644-.003.965-.009 21.313-.373 136.285-31.633 178.721-43.363-1.519 26.001-8.357 51.431-20.06 74.613l-22.235-12.837c-5.211-3.009-11.874-1.223-14.881 3.987-3.009 5.21-1.223 11.873 3.987 14.881l31.977 18.461c1.716.99 3.588 1.461 5.436 1.461 3.765 0 7.427-1.953 9.445-5.448.188-.327.358-.659.51-.997 18.281-31.934 27.951-68.284 27.951-105.215C468.426 219.07 458.755 182.719 440.477 150.785zM267.194 288.674c-18.044.322-32.931-14.089-33.247-32.106-.153-8.728 3.104-16.993 9.168-23.272 6.063-6.28 14.21-9.822 22.939-9.974.1-.001.203-.002.308-.002 14.24 0 85.508 15.615 147.38 30.111C351.954 270.201 280.675 288.439 267.194 288.674zM256 102.285c6.015 0 10.894-4.877 10.894-10.894V54.468c0-6.017-4.878-10.894-10.894-10.894-6.015 0-10.894 4.877-10.894 10.894v36.923C245.106 97.407 249.985 102.285 256 102.285zM102.286 256c0-6.017-4.878-10.894-10.894-10.894H54.468c-6.015 0-10.894 4.877-10.894 10.894 0 6.017 4.878 10.894 10.894 10.894h36.924C97.407 266.894 102.286 262.017 102.286 256zM107.998 328.871l-31.977 18.461c-5.21 3.008-6.996 9.67-3.987 14.881 2.019 3.495 5.679 5.448 9.445 5.448 1.848 0 3.721-.471 5.436-1.461l31.977-18.461c5.21-3.008 6.996-9.67 3.987-14.881C119.87 327.648 113.209 325.862 107.998 328.871zM164.668 76.021c-3.009-5.209-9.669-6.996-14.881-3.987-5.21 3.008-6.996 9.67-3.987 14.881l18.461 31.976c2.019 3.495 5.679 5.448 9.445 5.448 1.848 0 3.721-.471 5.436-1.461 5.21-3.008 6.996-9.67 3.987-14.881L164.668 76.021zM118.892 164.262L86.915 145.8c-5.213-3.009-11.874-1.222-14.881 3.987-3.009 5.21-1.223 11.873 3.987 14.881l31.977 18.461c1.716.991 3.588 1.461 5.436 1.461 3.765 0 7.427-1.953 9.445-5.448C125.888 173.932 124.102 167.269 118.892 164.262zM332.858 122.878c1.716.99 3.588 1.461 5.436 1.461 3.765 0 7.426-1.953 9.445-5.448L366.2 86.915c3.009-5.21 1.223-11.873-3.987-14.881-5.211-3.009-11.872-1.223-14.881 3.987l-18.461 31.976C325.862 113.208 327.647 119.87 332.858 122.878zM312.647 381.161h-73.895c-6.015 0-10.894 4.877-10.894 10.894s4.878 10.894 10.894 10.894h73.895c6.016 0 10.894-4.877 10.894-10.894S318.662 381.161 312.647 381.161zM200.443 381.161h-1.089c-6.015 0-10.894 4.877-10.894 10.894s4.878 10.894 10.894 10.894h1.089c6.015 0 10.894-4.877 10.894-10.894S206.458 381.161 200.443 381.161z" fill="#ffffff" class="color000 svgShape"></path></svg></g></svg>