<svg id="SvgjsSvg1001" width="288" height="288" xmlns="http://www.w3.org/2000/svg" version="1.1" xmlns:xlink="http://www.w3.org/1999/xlink" xmlns:svgjs="http://svgjs.com/svgjs"><defs id="SvgjsDefs1002"></defs><g id="SvgjsG1008"><svg xmlns="http://www.w3.org/2000/svg" enable-background="new 0 0 511.999 511.999" viewBox="0 0 511.999 511.999" width="288" height="288"><path d="M400.525,33.706V0h-30.417v33.706H141.892V0h-30.417v33.706H38.697V144.47v30.417v337.111h434.604V174.888V144.47V33.706   H400.525z M69.114,64.123h42.36v33.707h30.417V64.123h228.216v33.707h30.417V64.123h42.36v80.347H69.114V64.123z M442.885,481.583   H69.114V174.888h373.77V481.583z" fill="#ffffff" class="color000 svgShape"></path><path d="M110.495 207.507v76.043h20.519v160.448h.001 76.043v-236.49H110.495zM176.64 413.58h-15.209V253.133h-20.519v-15.209h35.728V413.58zM229.809 207.41l-.487 76.042 72.252.463-59.083 142.638 70.255 29.1L415.08 208.598 229.809 207.41zM296.284 415.911l-14.051-5.82 64.743-156.304-87.043-.557.097-15.21 109.647.703L296.284 415.911z" fill="#ffffff" class="color000 svgShape"></path></svg></g></svg>